<svg width="142" height="32" viewBox="0 0 142 32" fill="none" xmlns="http://www.w3.org/2000/svg">
<path d="M18.3646 11.6913C20.5118 9.54057 20.5118 6.04622 18.3646 3.89549L14.4756 0L10.5864 3.89549C8.43928 6.04622 8.43928 9.54057 10.5864 11.6913C12.7337 13.842 16.2222 13.842 18.3695 11.6913H18.3646Z" fill="#4B82DE"/>
<path d="M10.5864 22.5899C8.43928 24.7406 8.43928 28.2349 10.5864 30.3856C12.7337 32.5364 16.2222 32.5364 18.3695 30.3856C20.5166 28.2349 20.5166 24.7406 18.3695 22.5899C16.2222 20.4391 12.7337 20.4391 10.5864 22.5899Z" fill="#4B82DE"/>
<path d="M27.3392 13.6053C25.192 11.4545 21.7034 11.4545 19.5562 13.6053C17.409 15.756 17.409 19.2503 19.5562 21.4011C21.7034 23.5518 25.192 23.5518 27.3392 21.4011C29.4864 19.2503 29.4864 15.756 27.3392 13.6053Z" fill="#4B82DE"/>
<path d="M9.39437 13.6053C7.24714 11.4545 3.75856 11.4545 1.61137 13.6053C-0.535821 15.756 -0.535821 19.2503 1.61137 21.4011C3.75856 23.5518 7.24714 23.5518 9.39437 21.4011C11.5415 19.2503 11.5415 15.756 9.39437 13.6053Z" fill="#4B82DE"/>
<path d="M37.313 16.9449C37.313 11.7976 40.3818 9.04272 45.0091 9.04272C48.3577 9.04272 51.9621 10.9856 52.1745 15.3644H48.2323C48.02 13.3345 46.3987 12.4404 45.0139 12.4404C42.6882 12.4404 41.2406 14.0015 41.2406 16.9449C41.2406 19.8882 42.6882 21.4928 45.0139 21.4928C46.3987 21.4928 48.0007 20.5745 48.2323 18.5688H52.1745C51.9621 22.9234 48.3577 24.8905 45.0091 24.8905C40.3818 24.8905 37.313 22.1356 37.313 16.9449Z" fill="#4B82DE"/>
<path d="M53.1343 24.5907V9.34229H56.6325V24.5907H53.1343Z" fill="#4B82DE"/>
<path d="M57.8002 19.0812C57.8002 15.1518 60.2514 13.2717 63.8751 13.2717C67.2865 13.2717 69.4385 15.3017 69.4385 18.7186C69.4385 19.1247 69.4192 19.55 69.3517 19.9994H61.2695C61.4818 21.5605 62.4613 22.3483 63.8269 22.3483C64.6568 22.3483 65.3613 22.0293 65.7473 21.4929H69.1586C68.5169 23.4599 66.6833 24.8905 63.8703 24.8905C60.179 24.8905 57.7954 22.9476 57.7954 19.0812H57.8002ZM65.9886 17.7568C65.7521 16.3698 64.6858 15.8139 63.6628 15.8139C62.6399 15.8139 61.6362 16.5196 61.3371 17.7568H65.9837H65.9886Z" fill="#4B82DE"/>
<path d="M70.2158 19.0812C70.2158 15.1083 72.6234 13.2717 75.1426 13.2717C76.8891 13.2717 77.8296 13.9145 78.5733 14.9392H78.785L78.9975 13.5714H82.2788V24.5909H78.9975L78.785 23.2231H78.5733C77.8254 24.2719 76.8891 24.8905 75.1426 24.8905C72.6284 24.8905 70.2158 23.0346 70.2158 19.0812ZM78.8962 19.0812C78.8962 17.3315 77.8495 16.1329 76.3388 16.1329C74.8288 16.1329 73.8253 17.0706 73.8253 19.0812C73.8253 21.0917 74.872 22.0293 76.3388 22.0293C77.8056 22.0293 78.8962 20.8355 78.8962 19.0812Z" fill="#4B82DE"/>
<path d="M83.8805 24.5909V18.419C83.8805 14.7893 86.0562 13.2717 89.5932 13.2717C93.1301 13.2717 95.3065 14.7893 95.3065 18.419V24.5909H91.8078V18.419C91.8078 17.0754 91.1279 16.2393 89.5882 16.2393C88.0492 16.2393 87.3686 17.0706 87.3686 18.419V24.5909H83.8706H83.8805Z" fill="#4B82DE"/>
<path d="M96.4839 19.0812C96.4839 15.1518 98.9542 13.2717 102.559 13.2717C105.222 13.2717 107.847 14.7024 108.059 17.8826H104.711C104.392 16.4084 103.408 16.0266 102.515 16.0266C101.044 16.0266 100.083 17.0077 100.083 19.0812C100.083 21.1545 101.044 22.1357 102.515 22.1357C103.413 22.1357 104.392 21.7538 104.711 20.2797H108.059C107.847 23.4599 105.222 24.8905 102.559 24.8905C98.9542 24.8905 96.4839 23.0105 96.4839 19.0812Z" fill="#4B82DE"/>
<path d="M108.812 19.0812C108.812 15.1083 111.22 13.2717 113.738 13.2717C115.485 13.2717 116.426 13.9145 117.169 14.9392H117.382L117.594 13.5714H120.875V24.5909H117.594L117.382 23.2231H117.169C116.421 24.2719 115.485 24.8905 113.738 24.8905C111.225 24.8905 108.812 23.0346 108.812 19.0812ZM117.493 19.0812C117.493 17.3315 116.445 16.1329 114.935 16.1329C113.425 16.1329 112.421 17.0706 112.421 19.0812C112.421 21.0917 113.469 22.0293 114.935 22.0293C116.402 22.0293 117.493 20.8355 117.493 19.0812Z" fill="#4B82DE"/>
<path d="M122.477 24.5908V13.5713H125.763L125.975 15.2388H126.187C126.935 14.1706 127.852 13.5713 129.768 13.5713V16.795C129.492 16.7515 129.213 16.7515 128.957 16.7515C127.061 16.7515 125.97 17.6891 125.97 19.9123V24.5908H122.472H122.477Z" fill="#4B82DE"/>
<path d="M129.58 19.081C129.58 15.1275 131.988 13.2716 134.506 13.2716C136.253 13.2716 137.194 13.8902 137.937 14.939H138.149V9.34229H141.647V24.5907H138.366L138.153 23.223H137.942C137.194 24.2476 136.258 24.8904 134.511 24.8904C131.997 24.8904 129.585 23.0538 129.585 19.081H129.58ZM138.26 19.081C138.26 17.3314 137.213 16.1328 135.702 16.1328C134.192 16.1328 133.189 17.0704 133.189 19.081C133.189 21.0916 134.236 22.0292 135.702 22.0292C137.17 22.0292 138.26 20.8354 138.26 19.081Z" fill="#4B82DE"/>
</svg>
